<svg xmlns="http://www.w3.org/2000/svg" shape-rendering="geometricPrecision" text-rendering="geometricPrecision" image-rendering="optimizeQuality" fill-rule="evenodd" clip-rule="evenodd" viewBox="0 0 421 511.605"><path fill="#E44B4D" d="M95.705.014h199.094L421 136.548v317.555c0 31.54-25.961 57.502-57.502 57.502H95.705c-31.55 0-57.502-25.873-57.502-57.502V57.515C38.203 25.886 64.076.014 95.705.014z"/><path fill="#CD4445" d="M341.028 133.408h-.019L421 188.771v-52.066h-54.357c-9.458-.15-17.998-1.274-25.615-3.297z"/><path fill="#FBCFD0" d="M294.8 0L421 136.533v.172h-54.357c-45.068-.718-69.33-23.397-71.843-61.384V0z"/><path fill="#CD4445" fill-rule="nonzero" d="M0 431.901V253.404l.028-1.261c.668-16.446 14.333-29.706 30.936-29.706h7.238v50.589H397.04c12.862 0 23.373 10.51 23.373 23.371v135.504c0 12.83-10.543 23.373-23.373 23.373H23.373C10.541 455.274 0 444.75 0 431.901z"/><path fill="#963232" fill-rule="nonzero" d="M143.448 240.364a8.496 8.496 0 01-8.496-8.497 8.496 8.496 0 018.496-8.497h163.176a8.496 8.496 0 018.496 8.497 8.496 8.496 0 01-8.496 8.497H143.448zm0-59.176a8.496 8.496 0 010-16.993h172.304a8.496 8.496 0 110 16.993H143.448z"/><path fill="#fff" fill-rule="nonzero" d="M11.329 276.171v154.728c0 7.793 6.38 14.178 14.179 14.178h370.53c7.799 0 14.179-6.379 14.179-14.178V297.405c0-7.798-6.401-14.178-14.179-14.178H37.892c-12.618-.096-19.586-1.638-26.563-7.056z"/><path fill="#1A1A1A" fill-rule="nonzero" d="M90.915 319.678l9.041 21.884h1.31l9.041-21.884h28.434l-18.214 39.571 18.214 42.323h-29.089l-9.827-23.585h-1.18l-9.695 23.585H61.171l17.82-41.535-17.82-40.359h29.744zm109.737 81.894h-52.413v-81.894h26.206v60.93h26.207v20.964zm6.879-1.44l3.669-21.62c8.036 2.008 15.264 3.012 21.686 3.012 6.42 0 11.595-.262 15.525-.786v-6.551l-11.791-1.049c-10.657-.961-17.974-3.515-21.948-7.664-3.975-4.149-5.962-10.286-5.962-18.411 0-11.181 2.424-18.866 7.273-23.06 4.848-4.194 13.08-6.29 24.698-6.29s22.102 1.092 31.448 3.276l-3.275 20.964c-8.125-1.31-14.633-1.965-19.524-1.965-4.892 0-9.041.219-12.449.655v6.42l9.434.919c11.443 1.134 19.349 3.864 23.716 8.188 4.37 4.325 6.553 10.33 6.553 18.017 0 5.504-.743 10.154-2.228 13.954-1.484 3.8-3.254 6.684-5.308 8.649-2.053 1.965-4.955 3.472-8.713 4.521-3.754 1.047-7.054 1.681-9.892 1.899-2.839.219-6.617.328-11.333.328-11.357 0-21.883-1.135-31.579-3.406zm105.021-80.454l9.04 21.884h1.311l9.04-21.884h28.434l-18.214 39.571 18.214 42.323h-29.089l-9.826-23.585h-1.18l-9.696 23.585h-27.779l17.82-41.535-17.82-40.359h29.745z"/></svg>